<?xml version="1.0" encoding="UTF-8"?>
<svg id="Layer_1" data-name="Layer 1" xmlns="http://www.w3.org/2000/svg" viewBox="0 0 2893.16 1013.28">
  <path d="m2893.13,413.16c.8,148.9-23.4,272.5-72.7,370.6-49.3,98.1-111.5,147.1-186.8,147.1-84.1,0-152.9-44.4-206.6-133.3-42.4-27.2-63.7-54.1-63.7-80.5,0-6.4,1.2-12.8,3.6-19.2,10.4-28,44-42,100.9-42,44,0,75.3,9.6,93.7,28.8,6.4,7.2,9.6,16.4,9.6,27.6,0,3.2-.4,8.4-1.2,15.6-.8,7.2-1.2,12.4-1.2,15.6,0,11.2,4,20,12,26.4,5.6,22.4,18.4,33.2,38.4,32.4,17.6-.8,36.8-27.2,57.6-79.3,20.8-52.1,32.8-104.9,36-158.6-24.8,32.8-58.5,49.2-100.9,49.2-66.5,0-121.3-26-164.6-78.1-40-47.2-62.1-105.7-66.1-175.4-3.2-56.1,14.8-122.9,54.1-200.6,44.8-90.5,96.5-135.7,155-135.7,92.1,0,165.4,34.6,219.8,103.9,54.7,69.5,82.3,164.6,83.1,285.5Zm-201.8-78c4-19.2,6-40.8,6-64.9,0-63.3-11.6-98.1-34.8-104.5-21.6-5.6-43.6,8.8-66.1,43.2-20,28.8-34,62.1-42,99.7-5.6,24-8.4,48.4-8.4,73.3,0,64.9,17.2,100.9,51.7,108.1,17.6,4,36.4-12.4,56.5-49.2,16.7-32.1,29.1-67.3,37.1-105.7Z" style="fill: #e0e0e0; fill-rule: evenodd;"/>
  <path d="m2421.4,238.89c-10.46,28.39-44.82,43.33-103.09,43.33-44.82,0-76.95-9.71-95.62-29.88-6.72-7.47-9.71-16.44-9.71-26.89,0-3.74.75-9.71,1.49-16.44.75-6.72,1.49-12.7,1.49-16.44,0-10.46-3.74-19.42-11.95-26.15-5.98-23.91-18.68-35.11-39.59-32.87-17.93.75-38.1,27.64-59.02,80.68-21.66,53.04-33.62,107.58-36.61,162.86,25.4-34.36,59.76-51.55,103.09-51.55,67.98,0,124.01,26.89,168.83,79.93,41.09,49.31,63.5,109.07,67.98,179.29,2.99,57.52-14.94,126.25-55.28,205.44-45.57,92.63-98.61,138.95-158.37,138.95-94.13,0-169.58-35.11-224.86-106.08-56.03-70.97-84.42-168.09-85.16-291.35-.75-152.4,23.91-279.4,74.7-380.25C2010.52,50.63,2074.02-.16,2150.97-.16c85.91,0,156.88,45.57,211.42,136.71,43.33,28.39,64.99,56.03,64.99,82.18-2.24,6.72-3.73,13.45-5.98,20.17Zm-191.99,398.18c5.98-23.91,8.96-48.56,8.96-73.96,0-67.23-17.93-104.59-53.04-112.06-17.93-2.99-37.35,13.45-57.52,50.8-17.18,32.87-29.88,69.48-38.1,109.82-3.74,19.42-5.98,41.83-5.98,66.49,0,64.99,11.95,100.1,35.86,106.08,22.41,5.98,44.82-8.96,67.98-43.33,19.42-30.63,33.62-64.99,41.83-103.84Z" style="fill: #f9f9f9; fill-rule: evenodd;"/>
  <g>
    <path d="m615.23,298.48c0-43.27-60.21-83.73-154.28-83.73-160.87,0-345.25,145.81-345.25,290.69,0,74.32,43.27,96.9,50.8,96.9,6.58,0,13.17-7.53,16.93-7.53,2.82,0,8.47,0,8.47,9.41,0,19.76-22.58,44.21-47.98,44.21C92.18,648.43-.01,568.47-.01,480.04-.01,322.94,158.03,162.07,405.45,162.07c144.87,0,317.97,74.32,317.97,183.44,0,57.38-80.9,303.86-212.61,303.86-38.57,0-104.42-49.86-104.42-74.32,0-7.53,6.59-13.17,22.58-13.17,12.23,0,0,12.23,14.11,12.23,33.87,0,172.15-78.08,172.15-275.64Zm-230.48,358.42c17.87,56.44,33.87,124.18,33.87,185.32,0,80.9-6.58,169.33-39.51,169.33s-102.54-34.81-102.54-79.96c0-81.84,50.8-503.29,50.8-539.98s-7.53-56.44-7.53-56.44c0-14.11,11.29-19.76,27.28-19.76,30.1,0,73.38,20.7,73.38,45.16,0,22.58-20.7,157.1-35.75,296.33Z" style="fill: #ebf1f2;"/>
    <path d="m885.22,715.22c-21.64,87.49-52.68,189.09-82.78,189.09-83.73,0-114.77-63.03-114.77-137.35,0-275.63,88.43-340.55,161.81-340.55,19.76,0,40.45,5.64,55.5,24.46,8.47-15.99,18.81-24.46,31.04-24.46,25.4,0,66.79,33.87,66.79,50.8,0,14.11-18.81,178.74-18.81,261.52,0,69.61,20.7,100.66,35.75,100.66,22.58,0,51.74-77.14,62.09-153.34,0-2.82,3.76-4.7,8.47-4.7,10.35,0,27.28,7.53,27.28,18.81,0,33.87-31.04,223.9-109.12,223.9-59.27,0-107.24-76.2-123.24-208.84Zm-100.66,72.44c0,48.92,6.58,63.97,18.81,63.97,21.64,0,58.33-152.4,77.14-242.71,0-40.45,2.82-76.2,8.47-105.36-4.7-18.82-11.29-33.87-24.46-33.87-45.16,0-79.96,171.21-79.96,317.97Z" style="fill: #ebf1f2;"/>
    <path d="m1368.75,646.55c10.35,0,26.34,18.81,26.34,37.63v1.88c-4.7,91.25-76.2,228.6-194.73,231.42h-1.88c-68.67,0-111.01-51.74-111.01-112.89,0-16.93,10.35-27.28,15.99-27.28,2.82,0,4.7,1.88,4.7,6.58,0,25.4,15.05,69.61,46.1,69.61,32.93,0,56.44-32.93,56.44-84.67,0-61.15-41.39-120.41-76.2-170.27l-5.64-8.47c-4.7,71.5-11.29,117.59-11.29,117.59,0,0,0,3.76-4.7,3.76-11.29-1.88-31.04-11.29-31.04-23.52v-1.88s7.53-55.5,12.23-151.46c-4.7-9.41-6.59-16.93-6.59-24.46,0-79.02,86.55-108.19,109.13-108.19s31.98,9.41,31.98,30.1c0,4.7-8.47,26.34-8.47,54.56,0,118.53,98.78,143.93,98.78,285.04,0,15.05-1.88,28.22-4.7,40.45,34.81-42.33,42.33-103.48,46.1-154.28.94-8.47,3.76-11.29,8.47-11.29Z" style="fill: #ebf1f2;"/>
    <path d="m1285.97,426.42c5.64-5.64,30.1-9.41,61.15-11.29,10.35-111.01,27.28-207.9,42.33-222.95,8.47-8.47,17.87-12.23,28.22-12.23,31.98,0,66.79,35.75,66.79,49.86,0,13.17-25.4,71.5-43.27,184.38,36.69,1.88,68.67,6.59,76.2,14.11,4.7,4.7,6.58,9.41,6.58,13.17,0,11.29-13.17,20.7-18.81,20.7-13.17,0-16.93-14.11-68.67-17.87-8.47,58.33-13.17,128.88-13.17,212.61,0,107.24,40.45,165.57,79.96,165.57,62.09,0,79.02-136.41,81.84-164.63.94-8.47,3.76-11.29,8.47-11.29,10.35,0,26.34,17.87,26.34,36.69v2.82c-6.59,70.56-41.39,216.37-124.18,216.37-31.98,0-87.49-19.75-124.18-56.44-31.99-31.99-33.87-139.23-33.87-244.59,0-47.04,2.82-99.72,6.58-151.46-27.28,6.58-29.16,17.87-38.57,17.87-13.17,0-27.28-7.53-27.28-18.81,0-8.47.94-15.99,7.53-22.58Z" style="fill: #ebf1f2;"/>
    <path d="m1845.71,657.84c.94-8.47,4.7-12.23,9.41-12.23,10.35,0,25.4,17.87,25.4,37.63,0,88.43-64.91,208.84-158.98,208.84-121.35,0-174.04-109.12-174.04-223.9,0-167.45,60.21-236.12,140.17-236.12,0-22.58,16.93-26.34,26.34-26.34,52.68,0,71.5,36.69,71.5,110.07,0,115.71-79.02,204.14-137.35,204.14h-8.47c13.17,45.16,42.33,89.37,99.72,89.37,66.79,0,98.78-76.2,106.3-151.46Zm-142.05-189.09c-36.69,7.53-71.5,76.2-71.5,192.85,0,6.58.94,14.11.94,20.7,22.58-2.82,79.96-58.33,79.96-159.92,0-26.34-4.7-42.33-9.41-53.62Z" style="fill: #ebf1f2;"/>
  </g>
</svg>