<?xml version="1.0" encoding="UTF-8" standalone="no"?>
<!DOCTYPE svg PUBLIC "-//W3C//DTD SVG 1.1//EN" "http://www.w3.org/Graphics/SVG/1.1/DTD/svg11.dtd">
<svg width="100%" height="100%" viewBox="0 0 601 601" version="1.1" xmlns="http://www.w3.org/2000/svg" xmlns:xlink="http://www.w3.org/1999/xlink" xml:space="preserve" xmlns:serif="http://www.serif.com/" style="fill-rule:evenodd;clip-rule:evenodd;stroke-linejoin:round;stroke-miterlimit:2;">
    <g transform="matrix(1,0,0,1,-1339,0)">
        <g transform="matrix(0.862194,0,0,1.01029,1279.19,36.8297)">
            <rect id="No-Bg" serif:id="No Bg" x="69.684" y="-36.454" width="696.526" height="594.478" style="fill:none;"/>
            <g id="No-Bg1" serif:id="No Bg">
                <g transform="matrix(1.15983,0,0,0.989813,-103.977,-35.1696)">
                    <g transform="matrix(1,0,0,1,-569.977,-312.934)">
                        <path d="M1301.26,582.856C1301.7,665.744 1288.22,734.483 1260.82,789.073C1233.41,843.662 1198.76,870.957 1156.87,870.957C1110.08,870.957 1071.76,846.225 1041.9,796.76C1018.28,781.608 1006.47,766.68 1006.47,751.974C1006.47,748.409 1007.14,744.844 1008.48,741.278C1014.27,725.681 1032.99,717.883 1064.62,717.883C1089.13,717.883 1106.52,723.23 1116.76,733.926C1120.33,737.936 1122.11,743.061 1122.11,749.3C1122.11,751.082 1121.89,753.979 1121.44,757.99C1121,762 1120.78,764.897 1120.78,766.68C1120.78,772.918 1123,777.82 1127.46,781.385C1130.58,793.863 1137.71,799.879 1148.85,799.433C1158.65,798.988 1169.35,784.282 1180.93,755.316C1192.52,726.35 1199.21,696.938 1200.99,667.081C1187.17,685.352 1168.46,694.487 1144.84,694.487C1107.85,694.487 1077.33,680.004 1053.26,651.038C1030.98,624.746 1018.73,592.215 1016.5,553.445C1014.72,522.25 1024.74,485.04 1046.58,441.814C1071.53,391.457 1100.28,366.279 1132.81,366.279C1184.06,366.279 1224.83,385.553 1255.13,424.1C1285.44,462.647 1300.81,515.566 1301.26,582.856ZM1188.96,539.407C1191.18,528.712 1192.3,516.68 1192.3,503.311C1192.3,468.106 1185.84,448.721 1172.91,445.156C1160.88,442.037 1148.63,450.058 1136.15,469.22C1125.01,485.263 1117.21,503.757 1112.75,524.701C1109.63,538.07 1108.07,551.662 1108.07,565.477C1108.07,601.573 1117.66,621.626 1136.82,625.637C1146.62,627.865 1157.09,618.73 1168.24,598.231C1177.59,580.405 1184.5,560.798 1188.96,539.407Z" style="fill:rgb(17,137,121);"/>
                    </g>
                    <g transform="matrix(7.4705,0,0,7.4705,-3607.69,-3511.85)">
                        <path d="M545.66,493.231C544.866,495.37 542.299,496.439 537.96,496.439C534.599,496.439 532.216,495.706 530.81,494.239C530.321,493.689 530.077,493.017 530.077,492.223C530.077,491.917 530.107,491.505 530.169,490.985C530.23,490.466 530.26,490.053 530.26,489.748C530.26,488.953 529.955,488.312 529.344,487.823C528.916,486.05 527.938,485.225 526.41,485.348C525.066,485.409 523.599,487.41 522.01,491.352C520.421,495.294 519.505,499.342 519.26,503.498C521.155,500.931 523.721,499.648 526.96,499.648C532.032,499.648 536.219,501.634 539.519,505.606C542.574,509.273 544.255,513.734 544.56,518.989C544.805,523.267 543.43,528.37 540.435,534.298C537.013,541.203 533.071,544.656 528.61,544.656C521.582,544.656 515.991,542.013 511.835,536.727C507.68,531.441 505.571,524.214 505.51,515.048C505.449,503.681 507.298,494.239 511.056,486.723C514.814,479.206 519.566,475.448 525.31,475.448C531.727,475.448 536.982,478.839 541.077,485.623C544.316,487.762 545.935,489.809 545.935,491.764C545.935,492.253 545.844,492.742 545.66,493.231ZM531.36,522.931C531.788,521.159 532.002,519.325 532.002,517.431C532.002,512.42 530.688,509.639 528.06,509.089C526.716,508.845 525.28,510.098 523.752,512.848C522.469,515.292 521.521,518.012 520.91,521.006C520.605,522.473 520.452,524.123 520.452,525.956C520.452,530.784 521.338,533.412 523.11,533.839C524.76,534.267 526.441,533.198 528.152,530.631C529.68,528.37 530.749,525.803 531.36,522.931Z" style="fill:rgb(20,156,139);"/>
                    </g>
                </g>
            </g>
        </g>
    </g>
</svg>
